<svg width="46" height="46" viewBox="0 0 46 46" fill="none" xmlns="http://www.w3.org/2000/svg">
<circle cx="23" cy="23" r="23" fill="#FF9E2C"/>
<path d="M14.5352 12.2925H31.4639C31.5779 12.2925 31.6716 12.3856 31.6719 12.4996V13.9996C31.6719 14.1137 31.578 14.2076 31.4639 14.2076H29.1602V14.2144H29.1543V17.8033C29.1543 19.9839 28.0191 21.903 26.3066 22.9947L26.3105 22.9996L26.3193 23.0132L26.3066 23.0054C28.0191 24.0971 29.1543 26.0162 29.1543 28.1968V31.7857H29.1602V31.7925H31.4639C31.5779 31.7925 31.6716 31.8856 31.6719 31.9996V33.4996C31.6719 33.6137 31.578 33.7076 31.4639 33.7076H14.5352C14.4212 33.7074 14.3281 33.6136 14.3281 33.4996V31.9996C14.3284 31.8857 14.4213 31.7928 14.5352 31.7925H16.8389V31.7857H16.8457V28.1968C16.8457 26.0162 17.98 24.0971 19.6924 23.0054L19.6895 22.9996L19.6807 22.9869L19.6924 22.9947C17.98 21.903 16.8457 19.9839 16.8457 17.8033V14.2144H16.8389V14.2076H14.5352C14.4212 14.2074 14.3281 14.1136 14.3281 13.9996V12.4996C14.3284 12.3857 14.4213 12.2928 14.5352 12.2925ZM23 23.9576C21.8679 23.9576 20.8024 24.3976 20.0029 25.1998C19.2009 25.9992 18.7607 27.0648 18.7607 28.1968V31.7857H18.7676V31.7925H27.2324V31.7857H27.2383V28.1968C27.2383 27.0647 26.7983 25.9992 25.9961 25.1998C25.1967 24.3978 24.132 23.9576 23 23.9576ZM18.7676 14.2144H18.7607V17.8033C18.7589 18.3601 18.8679 18.912 19.0811 19.4263C19.2943 19.9407 19.6077 20.4081 20.0029 20.8004C20.8024 21.6025 21.8679 22.0425 23 22.0425C24.1319 22.0425 25.1967 21.6023 25.9961 20.8004C26.7983 20.0009 27.2383 18.9354 27.2383 17.8033V14.2144H27.2324V14.2076H18.7676V14.2144Z" fill="white" stroke="#0C253F" stroke-width="0.0133929"/>
</svg>
