<svg width="16" height="19" viewBox="0 0 16 19" fill="none" xmlns="http://www.w3.org/2000/svg">
<path d="M14.9444 16.9218C14.9444 17.2165 14.8274 17.4991 14.619 17.7074C14.4106 17.9158 14.128 18.0329 13.8333 18.0329H1.61111C1.31643 18.0329 1.03381 17.9158 0.825437 17.7074C0.617063 17.4991 0.5 17.2165 0.5 16.9218V2.47732C0.5 2.18264 0.617063 1.90002 0.825437 1.69165C1.03381 1.48327 1.31643 1.36621 1.61111 1.36621H9.48444C9.77892 1.36627 10.0613 1.48323 10.2696 1.6914L14.6193 6.04103C14.8274 6.24932 14.9444 6.53173 14.9444 6.82621V16.9218Z" stroke="#66B6E5" stroke-linecap="round" stroke-linejoin="round"/>
<path d="M6.55117 6.5719L4.97191 8.67708C4.92413 8.7407 4.86324 8.79332 4.79337 8.83137C4.7235 8.86942 4.64627 8.89202 4.5669 8.89764C4.48754 8.90326 4.4079 8.89177 4.33336 8.86394C4.25882 8.83611 4.19113 8.7926 4.13487 8.73634L3.27783 7.88005" stroke="#66B6E5" stroke-linecap="round" stroke-linejoin="round"/>
<path d="M6.55117 11.5719L4.97191 13.6771C4.92413 13.7407 4.86324 13.7933 4.79337 13.8314C4.7235 13.8694 4.64627 13.892 4.5669 13.8976C4.48754 13.9033 4.4079 13.8918 4.33336 13.8639C4.25882 13.8361 4.19113 13.7926 4.13487 13.7363L3.27783 12.8793" stroke="#66B6E5" stroke-linecap="round" stroke-linejoin="round"/>
<path d="M8.83301 8.89929H12.1663" stroke="#66B6E5" stroke-linecap="round" stroke-linejoin="round"/>
<path d="M8.83301 13.3438H12.1663" stroke="#66B6E5" stroke-linecap="round" stroke-linejoin="round"/>
</svg>
