<svg width="46" height="46" viewBox="0 0 46 46" fill="none" xmlns="http://www.w3.org/2000/svg">
<circle cx="23" cy="23" r="23" fill="#0073B8"/>
<path d="M30.9997 24.6394V15.9728C30.9997 15.6192 30.8593 15.2801 30.6092 15.03C30.3592 14.78 30.02 14.6395 29.6664 14.6395H16.3333C15.9797 14.6395 15.6406 14.78 15.3905 15.03C15.1405 15.2801 15 15.6192 15 15.9728V24.6394H30.9997Z" stroke="white" stroke-width="2" stroke-linecap="round" stroke-linejoin="round"/>
<path d="M32.8852 28.7647C32.9754 28.9677 33.0134 29.19 32.9958 29.4114C32.9783 29.6329 32.9056 29.8464 32.7846 30.0327C32.6635 30.2189 32.4978 30.372 32.3025 30.4779C32.1073 30.5839 31.8887 30.6393 31.6665 30.6393H14.3335C14.1113 30.6393 13.8927 30.5839 13.6975 30.4779C13.5022 30.372 13.3365 30.2189 13.2154 30.0327C13.0944 29.8464 13.0217 29.6329 13.0042 29.4114C12.9866 29.19 13.0246 28.9677 13.1148 28.7647L15.0001 24.6394H30.9999L32.8852 28.7647Z" stroke="white" stroke-width="2" stroke-linecap="round" stroke-linejoin="round"/>
<path d="M21.6665 27.9727H24.3331" stroke="white" stroke-width="2" stroke-linecap="round" stroke-linejoin="round"/>
</svg>
