<svg width="46" height="46" viewBox="0 0 46 46" fill="none" xmlns="http://www.w3.org/2000/svg">
<circle cx="23" cy="23" r="23" fill="#6BB72F"/>
<path d="M19.7852 33.0781H26.2139C26.328 33.0781 26.4219 33.172 26.4219 33.2861V34.1426C26.4219 34.6129 26.0416 34.993 25.5713 34.9932H20.4277C19.9575 34.9929 19.5781 34.6128 19.5781 34.1426V33.2861C19.5781 33.172 19.6711 33.0782 19.7852 33.0781ZM23 12.9219C19.2088 12.9219 16.1357 15.9949 16.1357 19.7861C16.1359 22.266 17.4604 24.5125 19.5703 25.7324L20.5283 26.2871V29.4287H20.5352V29.4355H25.4639V29.4287H25.4707V26.2871L26.4287 25.7324C28.5387 24.5126 29.8631 22.2661 29.8633 19.7861C29.8633 15.9951 26.791 12.9221 23 12.9219ZM27.3887 27.3887L27.3857 27.3838V30.5C27.3857 30.9704 27.0056 31.3506 26.5352 31.3506H19.4639C18.9935 31.3506 18.6133 30.9704 18.6133 30.5V27.3955H18.6201L18.6104 27.3896C15.9874 25.8721 14.2209 23.0353 14.2207 19.7861C14.2207 14.9389 18.1528 11.0068 23 11.0068C27.847 11.0071 31.7783 14.9391 31.7783 19.7861C31.7782 23.0352 30.0115 25.8711 27.3887 27.3887Z" fill="white" stroke="#0C253F" stroke-width="0.0133929"/>
</svg>
