<svg width="82" height="66" viewBox="0 0 82 66" fill="none" xmlns="http://www.w3.org/2000/svg">
<path d="M7.32538 43.0409L11.7343 45.0995C11.7343 45.0995 10.6299 45.9689 9.81758 47.6321C9.01568 49.273 8.98808 50.9681 8.98808 50.9681L0 46.7486V39.6391L41.095 18.8412L60.463 28.688L56.8192 30.391L53.1753 32.094L41.0895 25.951L7.32538 43.0409Z" fill="white"/>
<path fill-rule="evenodd" clip-rule="evenodd" d="M72.26 34.6847L64.9794 38.0952L74.7415 43.0567L41.1654 58.8138L23.9795 50.7591C23.8884 49.6691 23.5252 48.5858 22.8589 47.6187C21.5827 45.7654 19.5151 44.7679 17.4113 44.7679C16.1317 44.7679 14.839 45.1369 13.7027 45.9063C10.6979 47.9411 9.92574 52.0067 11.9765 54.9865C14.0285 57.9662 18.1279 58.7323 21.1327 56.6983L41.0878 65.9999L81.9999 46.8533V39.5521L72.26 34.6847ZM17.3454 55.0312C17.3862 55.0312 17.4273 55.0306 17.4681 55.0294C19.5545 54.9631 21.1905 53.233 21.1248 51.1649C21.0583 49.0969 19.3131 47.473 17.2276 47.5399C15.1425 47.6056 13.5056 49.3354 13.5722 51.404C13.6366 53.4316 15.3149 55.0312 17.3454 55.0312Z" fill="white"/>
<path fill-rule="evenodd" clip-rule="evenodd" d="M41.0895 7.21719L58.3318 15.9926C58.3223 17.21 58.6494 18.4439 59.3583 19.5467C61.3127 22.5901 65.3857 23.4863 68.4547 21.5475C71.523 19.6091 72.4267 15.5703 70.472 12.527C68.5593 9.549 64.6222 8.63422 61.5793 10.4114L41.095 0L0 20.7982L0.0266891 27.9007L9.8047 32.4871L17.1129 28.7766L7.34225 24.2103L41.0895 7.21719ZM68.7627 16.0568C68.7627 13.9878 67.0709 12.3101 64.9846 12.3101C62.8979 12.3101 61.2061 13.9878 61.2061 16.0568C61.2061 18.1269 62.8979 19.8035 64.9846 19.8035C67.0709 19.8035 68.7627 18.1269 68.7627 16.0568Z" fill="white"/>
<path d="M72.5872 19.5294C73.3646 17.7844 73.3422 16.4005 73.3422 16.4005L81.9861 20.6595V27.9607L41.0874 47.1597L21.5522 37.9973L28.8568 34.2652L41.3761 39.8582L74.738 24.2173L70.6521 22.1423C70.6521 22.1423 71.7669 21.3702 72.5872 19.5294Z" fill="white"/>
</svg>
