<svg width="89" height="72" viewBox="0 0 89 72" fill="none" xmlns="http://www.w3.org/2000/svg">
<path d="M7.95072 46.9537L12.736 49.1995C12.736 49.1995 11.5373 50.148 10.6557 51.9623C9.78532 53.7524 9.75535 55.6016 9.75535 55.6016L0 50.9986V43.2427L44.6031 20.5541L65.6245 31.2961L61.6696 33.1539L57.7147 35.0117L44.5971 28.3102L7.95072 46.9537Z" fill="#767676"/>
<path fill-rule="evenodd" clip-rule="evenodd" d="M78.4284 37.8379L70.5263 41.5585L81.1217 46.971L44.6794 64.1605L26.0264 55.3736C25.9275 54.1845 25.5333 53.0027 24.8101 51.9477C23.425 49.9259 21.1809 48.8377 18.8975 48.8377C17.5087 48.8377 16.1056 49.2403 14.8723 50.0796C11.611 52.2995 10.7729 56.7346 12.9988 59.9853C15.2259 63.2359 19.6752 64.0716 22.9366 61.8527L44.5952 72L88.9998 51.1127V43.1478L78.4284 37.8379ZM18.826 60.0341C18.8703 60.0341 18.9149 60.0334 18.9592 60.0321C21.2237 59.9597 22.9993 58.0724 22.9281 55.8163C22.8558 53.5603 20.9616 51.7887 18.6982 51.8618C16.435 51.9334 14.6584 53.8205 14.7306 56.0772C14.8006 58.2891 16.6222 60.0341 18.826 60.0341Z" fill="#767676"/>
<path fill-rule="evenodd" clip-rule="evenodd" d="M44.5971 7.8733L63.3114 17.4464C63.3011 18.7746 63.656 20.1206 64.4255 21.3237C66.5467 24.6437 70.9674 25.6214 74.2983 23.5064C77.6286 21.3917 78.6095 16.9858 76.4879 13.6658C74.4119 10.4171 70.1387 9.41915 66.8361 11.3579L44.6031 0L0 22.689L0.0289674 30.4372L10.6417 35.4405L18.5738 31.3926L7.96903 26.4113L44.5971 7.8733ZM74.6327 17.5165C74.6327 15.2594 72.7965 13.4291 70.532 13.4291C68.2672 13.4291 66.431 15.2594 66.431 17.5165C66.431 19.7748 68.2672 21.6038 70.532 21.6038C72.7965 21.6038 74.6327 19.7748 74.6327 17.5165Z" fill="#0086D3"/>
<path d="M78.7837 21.3048C79.6274 19.4012 79.6031 17.8915 79.6031 17.8915L88.9849 22.5377V30.5026L44.5949 51.4469L23.3921 41.4516L31.3202 37.3802L44.9082 43.4817L81.1181 26.4189L76.6834 24.1552C76.6834 24.1552 77.8934 23.3129 78.7837 21.3048Z" fill="#0086D3"/>
</svg>
