<svg width="46" height="46" viewBox="0 0 46 46" fill="none" xmlns="http://www.w3.org/2000/svg">
<circle cx="23" cy="23" r="23" fill="white"/>
<path d="M14.25 33V31.75C14.25 30.6009 14.4763 29.4631 14.9161 28.4015C15.3558 27.3399 16.0003 26.3753 16.8128 25.5628C17.6253 24.7503 18.5899 24.1058 19.6515 23.6661C20.7131 23.2263 21.8509 23 23 23C24.1491 23 25.2869 23.2263 26.3485 23.6661C27.4101 24.1058 28.3747 24.7503 29.1872 25.5628C29.9997 26.3753 30.6442 27.3399 31.0839 28.4015C31.5237 29.4631 31.75 30.6009 31.75 31.75V33" stroke="#0C253F" stroke-width="2" stroke-linecap="square"/>
<path d="M23 23C24.3261 23 25.5979 22.4732 26.5355 21.5355C27.4732 20.5979 28 19.3261 28 18C28 16.6739 27.4732 15.4021 26.5355 14.4645C25.5979 13.5268 24.3261 13 23 13C21.6739 13 20.4021 13.5268 19.4645 14.4645C18.5268 15.4021 18 16.6739 18 18C18 19.3261 18.5268 20.5979 19.4645 21.5355C20.4021 22.4732 21.6739 23 23 23V23Z" stroke="#0C253F" stroke-width="2" stroke-linecap="square"/>
</svg>
